<?xml version="1.0" encoding="UTF-8" standalone="no"?>
<!-- Created with Inkscape (http://www.inkscape.org/) -->

<svg
   width="250"
   height="53"
   viewBox="0 0 66.145876 14.022923"
   version="1.1"
   id="svg1"
   inkscape:version="1.4.3 (0d15f75042, 2025-12-25)"
   sodipodi:docname="logo.svg"
   xmlns:inkscape="http://www.inkscape.org/namespaces/inkscape"
   xmlns:sodipodi="http://sodipodi.sourceforge.net/DTD/sodipodi-0.dtd"
   xmlns="http://www.w3.org/2000/svg"
   xmlns:svg="http://www.w3.org/2000/svg">
  <sodipodi:namedview
     id="namedview1"
     pagecolor="#ffffff"
     bordercolor="#000000"
     borderopacity="0.25"
     inkscape:showpageshadow="2"
     inkscape:pageopacity="0.0"
     inkscape:pagecheckerboard="0"
     inkscape:deskcolor="#d1d1d1"
     inkscape:document-units="mm"
     showborder="false"
     inkscape:clip-to-page="true"
     inkscape:zoom="4.086974"
     inkscape:cx="201.49382"
     inkscape:cy="-8.4414532"
     inkscape:window-width="1920"
     inkscape:window-height="1020"
     inkscape:window-x="0"
     inkscape:window-y="0"
     inkscape:window-maximized="1"
     inkscape:current-layer="layer1"
     showgrid="false" />
  <defs
     id="defs1" />
  <g
     inkscape:label="Layer 1"
     inkscape:groupmode="layer"
     id="layer1">
    <rect
       style="fill:#262626;fill-opacity:1;stroke:none;stroke-width:0.678723;stroke-opacity:0.547135"
       id="rect1"
       width="66.145836"
       height="4.4979167"
       x="3.906091e-06"
       y="-6.9388939e-18" />
    <path
       style="font-weight:500;font-size:11.9062px;line-height:0.9;font-family:'IBM Plex Sans';-inkscape-font-specification:'IBM Plex Sans Medium';letter-spacing:-0.264583px;fill:#262626;stroke-width:2.64583;stroke-opacity:0.547135"
       d="M 28.618759,13.837654 26.928078,7.6464305 h 1.262058 l 0.631028,2.5955505 0.559592,2.357428 h 0.03572 l 0.642935,-2.357428 0.750091,-2.5955505 h 1.166807 l 0.761997,2.5955505 0.654841,2.357428 h 0.03572 l 0.547685,-2.357428 0.642935,-2.5955505 h 1.202526 L 34.155145,13.837654 H 32.690682 L 31.869154,11.015884 31.381,9.2537676 h -0.03572 l -0.476248,1.7621164 -0.821528,2.82177 z m 13.306875,0 h -0.726278 q -0.357187,0 -0.619123,-0.154781 -0.25003,-0.166687 -0.380998,-0.464342 -0.130969,-0.297655 -0.130969,-0.702466 V 12.40891 l 0.369093,0.392904 h -0.416717 q -0.178593,0.571498 -0.654841,0.881059 -0.476248,0.297655 -1.154902,0.297655 -0.952496,0 -1.476369,-0.50006 -0.523872,-0.500061 -0.523872,-1.345401 0,-0.619122 0.297655,-1.023933 0.309561,-0.416717 0.892965,-0.619123 0.583403,-0.214311 1.452556,-0.214311 h 1.119183 V 9.7538273 q 0,-0.5595907 -0.309561,-0.8691524 -0.309562,-0.321467 -0.964403,-0.321467 -0.535779,0 -0.892965,0.25003 -0.345279,0.2381237 -0.583403,0.5953097 L 36.448782,8.7060819 q 0.309561,-0.5238727 0.869152,-0.8572454 0.571498,-0.34528 1.464463,-0.34528 1.19062,0 1.833555,0.5714977 0.654841,0.5595907 0.654841,1.5954301 v 3.1075177 h 0.654841 z m -1.952617,-2.72652 h -1.095371 q -0.678653,0 -1.012027,0.214311 -0.333373,0.214312 -0.333373,0.619123 v 0.214311 q 0,0.404811 0.285749,0.619123 0.285748,0.214311 0.761996,0.214311 0.404811,0 0.714372,-0.119062 0.309562,-0.119062 0.488155,-0.345279 0.190499,-0.226218 0.190499,-0.523873 z m 4.25977,2.72652 H 42.935011 V 7.6464305 h 1.297776 v 1.2263384 h 0.05953 q 0.09525,-0.309561 0.297655,-0.5834037 0.214312,-0.285749 0.559592,-0.4643417 0.34528,-0.178593 0.84534,-0.178593 h 0.34528 v 1.2501514 h -0.511967 q -0.511966,0 -0.869152,0.1190617 -0.357186,0.119062 -0.547686,0.333373 -0.178593,0.2143117 -0.178593,0.5357787 z m 6.829752,0 V 12.81372 h -0.0595 q -0.21431,0.547686 -0.666747,0.857247 -0.452437,0.309561 -1.071554,0.309561 -0.773894,0 -1.333481,-0.380998 -0.547688,-0.392905 -0.845343,-1.119183 -0.285749,-0.726278 -0.285749,-1.738305 0,-1.0239337 0.285749,-1.7383054 0.297655,-0.7262774 0.845343,-1.1072754 0.559587,-0.3929047 1.333481,-0.3929047 0.619117,0 1.083464,0.309561 0.464337,0.2976547 0.654837,0.8572464 h 0.0595 V 5.027068 h 1.297764 v 8.810586 z m -1.404921,-0.952496 q 0.392897,0 0.702454,-0.130969 0.32147,-0.142874 0.511967,-0.380998 0.1905,-0.25003 0.1905,-0.607216 V 9.6704843 q 0,-0.3214677 -0.1905,-0.5595917 -0.190497,-0.2381237 -0.511967,-0.3690917 -0.309557,-0.130968 -0.702454,-0.130968 -0.666747,0 -1.083464,0.4405287 -0.40481,0.4405297 -0.40481,1.1549014 v 1.071558 q 0,0.714372 0.40481,1.166807 0.416717,0.44053 1.083464,0.44053 z m 6.736231,1.09537 q -0.881054,0 -1.523981,-0.392905 -0.642937,-0.40481 -1.000114,-1.131089 -0.34528,-0.726278 -0.34528,-1.714492 0,-0.9882147 0.34528,-1.7025864 0.345277,-0.7262774 0.976294,-1.1310884 0.631027,-0.4048107 1.512081,-0.4048107 0.916774,0 1.523991,0.4167167 0.619117,0.404811 0.928674,1.1072764 0.30956,0.7024657 0.30956,1.5597114 v 0.488154 h -4.238586 v 0.202406 q 0,0.714372 0.416717,1.178713 0.428617,0.452436 1.214424,0.452436 0.571497,0 0.964394,-0.25003 0.392907,-0.25003 0.654847,-0.678654 l 0.773894,0.750091 q -0.357187,0.559591 -1.012024,0.904871 -0.642927,0.34528 -1.500171,0.34528 z m -0.0119,-5.4649451 q -0.452427,0 -0.797707,0.214312 -0.333367,0.202405 -0.523867,0.5714967 -0.178597,0.3571857 -0.178597,0.8334334 v 0.08334 h 2.881282 v -0.119062 q 0,-0.4762477 -0.166677,-0.8334334 -0.16669,-0.3571857 -0.476247,-0.5476857 -0.30956,-0.202405 -0.738187,-0.202405 z m 5.21225,5.3220711 H 60.296428 V 7.6464305 h 1.297771 v 1.0239334 h 0.0595 q 0.2024,-0.5000607 0.607207,-0.8334334 0.416717,-0.333374 1.131084,-0.333374 0.952494,0 1.476361,0.6310287 0.535777,0.6310277 0.535777,1.7740231 v 3.9290457 h -1.297754 v -3.774266 q 0,-0.7262774 -0.285737,-1.0834634 -0.27385,-0.3690917 -0.881054,-0.3690917 -0.34528,0 -0.654837,0.119062 -0.29766,0.107155 -0.500057,0.3452797 -0.1905,0.238124 -0.1905,0.5953097 z"
       id="text3"
       aria-label="warden" />
  </g>
</svg>
